<svg xmlns="http://www.w3.org/2000/svg" width="944" height="829" viewBox="0 0 944 829" role="img"><title>prediction = kᵀS ; eᵀ = vᵀ−prediction ; S′ = S+βkeᵀ</title><rect width="100%" height="100%" fill="white"/><g font-family="Microsoft YaHei, Noto Sans CJK SC, sans-serif"><text x="472.0" y="37" font-size="22" text-anchor="middle" fill="#26313b">prediction = kᵀS ; eᵀ = vᵀ−prediction ; S′ = S+βkeᵀ</text><text x="472.0" y="92" font-size="17" text-anchor="middle" fill="#64707b">先用 key 读取已有预测</text><rect x="200.0" y="136.5" width="25" height="25" rx="1.5" fill="#EE995B" fill-opacity="0.45" stroke="#d7dadd" stroke-width=".5"/><rect x="227.0" y="136.5" width="25" height="25" rx="1.5" fill="#EE995B" fill-opacity="0.9" stroke="#d7dadd" stroke-width=".5"/><path d="M 195.0 135.5 h -4 v 27 h 4 M 257.0 135.5 h 4 v 27 h -4" fill="none" stroke="#626970"/><text x="226.0" y="203" font-size="18" text-anchor="middle" fill="#26313b">kᵀ</text><text x="226.0" y="228" font-size="15" text-anchor="middle" fill="#64707b">1 × dk</text><text x="349.0" y="156.0" font-size="22" text-anchor="middle" fill="#26313b">×</text><rect x="432.5" y="123.0" width="25" height="25" rx="1.5" fill="#C95B5B" fill-opacity="0.45" stroke="#d7dadd" stroke-width=".5"/><rect x="459.5" y="123.0" width="25" height="25" rx="1.5" fill="#C95B5B" fill-opacity="0.9" stroke="#d7dadd" stroke-width=".5"/><rect x="486.5" y="123.0" width="25" height="25" rx="1.5" fill="#C95B5B" fill-opacity="0.68" stroke="#d7dadd" stroke-width=".5"/><rect x="432.5" y="150.0" width="25" height="25" rx="1.5" fill="#C95B5B" fill-opacity="0.68" stroke="#d7dadd" stroke-width=".5"/><rect x="459.5" y="150.0" width="25" height="25" rx="1.5" fill="#C95B5B" fill-opacity="0.68" stroke="#d7dadd" stroke-width=".5"/><rect x="486.5" y="150.0" width="25" height="25" rx="1.5" fill="#C95B5B" fill-opacity="0.68" stroke="#d7dadd" stroke-width=".5"/><path d="M 427.5 122.0 h -4 v 54 h 4 M 516.5 122.0 h 4 v 54 h -4" fill="none" stroke="#626970"/><text x="472.0" y="203" font-size="18" text-anchor="middle" fill="#26313b">S</text><text x="472.0" y="228" font-size="15" text-anchor="middle" fill="#64707b">dk × dv</text><text x="595.0" y="156.0" font-size="22" text-anchor="middle" fill="#26313b">=</text><rect x="678.5" y="136.5" width="25" height="25" rx="1.5" fill="#8A74B5" fill-opacity="0.45" stroke="#d7dadd" stroke-width=".5"/><rect x="705.5" y="136.5" width="25" height="25" rx="1.5" fill="#8A74B5" fill-opacity="0.9" stroke="#d7dadd" stroke-width=".5"/><rect x="732.5" y="136.5" width="25" height="25" rx="1.5" fill="#8A74B5" fill-opacity="0.68" stroke="#d7dadd" stroke-width=".5"/><path d="M 673.5 135.5 h -4 v 27 h 4 M 762.5 135.5 h 4 v 27 h -4" fill="none" stroke="#626970"/><text x="718.0" y="203" font-size="18" text-anchor="middle" fill="#26313b">prediction</text><text x="718.0" y="228" font-size="15" text-anchor="middle" fill="#64707b">1 × dv</text><text x="472.0" y="279" font-size="17" text-anchor="middle" fill="#64707b">只写入残差，外积不收缩 key/value 轴</text><rect x="90.5" y="310.0" width="25" height="25" rx="1.5" fill="#EE995B" fill-opacity="0.45" stroke="#d7dadd" stroke-width=".5"/><rect x="90.5" y="337.0" width="25" height="25" rx="1.5" fill="#EE995B" fill-opacity="0.68" stroke="#d7dadd" stroke-width=".5"/><path d="M 85.5 309.0 h -4 v 54 h 4 M 120.5 309.0 h 4 v 54 h -4" fill="none" stroke="#626970"/><text x="103.0" y="390" font-size="18" text-anchor="middle" fill="#26313b">βk</text><text x="103.0" y="415" font-size="15" text-anchor="middle" fill="#64707b">dk × 1</text><text x="226.0" y="343.0" font-size="22" text-anchor="middle" fill="#26313b">×</text><rect x="309.5" y="323.5" width="25" height="25" rx="1.5" fill="#8A74B5" fill-opacity="0.45" stroke="#d7dadd" stroke-width=".5"/><rect x="336.5" y="323.5" width="25" height="25" rx="1.5" fill="#8A74B5" fill-opacity="0.9" stroke="#d7dadd" stroke-width=".5"/><rect x="363.5" y="323.5" width="25" height="25" rx="1.5" fill="#8A74B5" fill-opacity="0.68" stroke="#d7dadd" stroke-width=".5"/><path d="M 304.5 322.5 h -4 v 27 h 4 M 393.5 322.5 h 4 v 27 h -4" fill="none" stroke="#626970"/><text x="349.0" y="390" font-size="18" text-anchor="middle" fill="#26313b">eᵀ</text><text x="349.0" y="415" font-size="15" text-anchor="middle" fill="#64707b">1 × dv</text><text x="472.0" y="343.0" font-size="22" text-anchor="middle" fill="#26313b">+</text><rect x="555.5" y="310.0" width="25" height="25" rx="1.5" fill="#C95B5B" fill-opacity="0.45" stroke="#d7dadd" stroke-width=".5"/><rect x="582.5" y="310.0" width="25" height="25" rx="1.5" fill="#C95B5B" fill-opacity="0.9" stroke="#d7dadd" stroke-width=".5"/><rect x="609.5" y="310.0" width="25" height="25" rx="1.5" fill="#C95B5B" fill-opacity="0.68" stroke="#d7dadd" stroke-width=".5"/><rect x="555.5" y="337.0" width="25" height="25" rx="1.5" fill="#C95B5B" fill-opacity="0.68" stroke="#d7dadd" stroke-width=".5"/><rect x="582.5" y="337.0" width="25" height="25" rx="1.5" fill="#C95B5B" fill-opacity="0.68" stroke="#d7dadd" stroke-width=".5"/><rect x="609.5" y="337.0" width="25" height="25" rx="1.5" fill="#C95B5B" fill-opacity="0.68" stroke="#d7dadd" stroke-width=".5"/><path d="M 550.5 309.0 h -4 v 54 h 4 M 639.5 309.0 h 4 v 54 h -4" fill="none" stroke="#626970"/><text x="595.0" y="390" font-size="18" text-anchor="middle" fill="#26313b">S</text><text x="595.0" y="415" font-size="15" text-anchor="middle" fill="#64707b">dk × dv</text><text x="718.0" y="343.0" font-size="22" text-anchor="middle" fill="#26313b">=</text><rect x="801.5" y="310.0" width="25" height="25" rx="1.5" fill="#C95B5B" fill-opacity="0.45" stroke="#d7dadd" stroke-width=".5"/><rect x="828.5" y="310.0" width="25" height="25" rx="1.5" fill="#C95B5B" fill-opacity="0.9" stroke="#d7dadd" stroke-width=".5"/><rect x="855.5" y="310.0" width="25" height="25" rx="1.5" fill="#C95B5B" fill-opacity="0.68" stroke="#d7dadd" stroke-width=".5"/><rect x="801.5" y="337.0" width="25" height="25" rx="1.5" fill="#C95B5B" fill-opacity="0.68" stroke="#d7dadd" stroke-width=".5"/><rect x="828.5" y="337.0" width="25" height="25" rx="1.5" fill="#C95B5B" fill-opacity="0.68" stroke="#d7dadd" stroke-width=".5"/><rect x="855.5" y="337.0" width="25" height="25" rx="1.5" fill="#C95B5B" fill-opacity="0.68" stroke="#d7dadd" stroke-width=".5"/><path d="M 796.5 309.0 h -4 v 54 h 4 M 885.5 309.0 h 4 v 54 h -4" fill="none" stroke="#626970"/><text x="841.0" y="390" font-size="18" text-anchor="middle" fill="#26313b">S′</text><text x="841.0" y="415" font-size="15" text-anchor="middle" fill="#64707b">dk × dv</text><text x="472.0" y="466" font-size="17" text-anchor="middle" fill="#64707b">用 query 从更新后的状态读取输出</text><rect x="200.0" y="510.5" width="25" height="25" rx="1.5" fill="#4F8FA5" fill-opacity="0.45" stroke="#d7dadd" stroke-width=".5"/><rect x="227.0" y="510.5" width="25" height="25" rx="1.5" fill="#4F8FA5" fill-opacity="0.9" stroke="#d7dadd" stroke-width=".5"/><path d="M 195.0 509.5 h -4 v 27 h 4 M 257.0 509.5 h 4 v 27 h -4" fill="none" stroke="#626970"/><text x="226.0" y="577" font-size="18" text-anchor="middle" fill="#26313b">qᵀ</text><text x="226.0" y="602" font-size="15" text-anchor="middle" fill="#64707b">1 × dk</text><text x="349.0" y="530.0" font-size="22" text-anchor="middle" fill="#26313b">×</text><rect x="432.5" y="497.0" width="25" height="25" rx="1.5" fill="#C95B5B" fill-opacity="0.45" stroke="#d7dadd" stroke-width=".5"/><rect x="459.5" y="497.0" width="25" height="25" rx="1.5" fill="#C95B5B" fill-opacity="0.9" stroke="#d7dadd" stroke-width=".5"/><rect x="486.5" y="497.0" width="25" height="25" rx="1.5" fill="#C95B5B" fill-opacity="0.68" stroke="#d7dadd" stroke-width=".5"/><rect x="432.5" y="524.0" width="25" height="25" rx="1.5" fill="#C95B5B" fill-opacity="0.68" stroke="#d7dadd" stroke-width=".5"/><rect x="459.5" y="524.0" width="25" height="25" rx="1.5" fill="#C95B5B" fill-opacity="0.68" stroke="#d7dadd" stroke-width=".5"/><rect x="486.5" y="524.0" width="25" height="25" rx="1.5" fill="#C95B5B" fill-opacity="0.68" stroke="#d7dadd" stroke-width=".5"/><path d="M 427.5 496.0 h -4 v 54 h 4 M 516.5 496.0 h 4 v 54 h -4" fill="none" stroke="#626970"/><text x="472.0" y="577" font-size="18" text-anchor="middle" fill="#26313b">S′</text><text x="472.0" y="602" font-size="15" text-anchor="middle" fill="#64707b">dk × dv</text><text x="595.0" y="530.0" font-size="22" text-anchor="middle" fill="#26313b">=</text><rect x="678.5" y="510.5" width="25" height="25" rx="1.5" fill="#C95B5B" fill-opacity="0.45" stroke="#d7dadd" stroke-width=".5"/><rect x="705.5" y="510.5" width="25" height="25" rx="1.5" fill="#C95B5B" fill-opacity="0.9" stroke="#d7dadd" stroke-width=".5"/><rect x="732.5" y="510.5" width="25" height="25" rx="1.5" fill="#C95B5B" fill-opacity="0.68" stroke="#d7dadd" stroke-width=".5"/><path d="M 673.5 509.5 h -4 v 27 h 4 M 762.5 509.5 h 4 v 27 h -4" fill="none" stroke="#626970"/><text x="718.0" y="577" font-size="18" text-anchor="middle" fill="#26313b">oᵀ</text><text x="718.0" y="602" font-size="15" text-anchor="middle" fill="#64707b">1 × dv</text><rect x="24" y="653" width="896" height="122" rx="3" fill="#f3f5f6"/><text x="43" y="681" font-size="16" text-anchor="start" fill="#26313b">维度</text><text x="101" y="681" font-size="16" text-anchor="start" fill="#26313b">key-major 状态的行是 dk，列是 dv；q/k/v 数学上为列向量。</text><text x="43" y="715" font-size="16" text-anchor="start" fill="#26313b">对象</text><text x="101" y="715" font-size="16" text-anchor="start" fill="#26313b">β 为标量写入率；e 是目标 value 与已有预测之差。</text><text x="43" y="749" font-size="16" text-anchor="start" fill="#26313b">机制</text><text x="101" y="749" font-size="16" text-anchor="start" fill="#26313b">瞬时损失梯度为 −keᵀ；减去 β 倍梯度就是加上 βkeᵀ。</text><text x="472.0" y="804" font-size="13" text-anchor="middle" fill="#7a8288">delta-update@五道口纳什</text></g></svg>